# Blender v2.93.4 OBJ File: 'Wall_Window.blend'
# www.blender.org
mtllib wall_window_material.mtl
o Cube
v -0.500000 -0.500000 -0.005772
v 0.500000 -0.500000 0.000000
v -0.500000 -0.500000 0.000000
v 0.500000 0.500000 0.000000
v -0.500000 0.500000 0.000000
v 0.250000 -0.250000 0.000000
v -0.250000 -0.250000 0.000000
v 0.250000 0.250000 0.000000
v -0.250000 0.250000 0.000000
v 0.250000 -0.250000 0.100000
v -0.250000 -0.250000 0.100000
v 0.250000 0.250000 0.100000
v -0.250000 0.250000 0.100000
vt 0.535367 0.023250
vt 0.535368 0.554416
vt 0.402576 0.421625
vt 0.402576 0.156041
vt 0.320236 0.158049
vt 0.320236 0.423196
vt 0.267207 0.423196
vt 0.267207 0.158049
vt 0.004201 0.023250
vt 0.136993 0.156041
vt 0.004201 0.554416
vt 0.136993 0.421625
vt 0.435950 0.560875
vt 0.435950 0.998038
vt -0.001213 0.998038
vt -0.001213 0.560875
vt 0.320490 0.423196
vt 0.320490 0.158049
vt 0.373520 0.158049
vt 0.373520 0.423196
vt 0.160640 0.423196
vt 0.160640 0.158049
vt 0.213670 0.158049
vt 0.213670 0.423196
vt 0.266953 0.158049
vt 0.266953 0.423196
vt 0.213924 0.423196
vt 0.213924 0.158049
vn 0.0000 0.0000 -1.0000
vn 0.3015 -0.3015 -0.9045
vn 0.3015 0.3015 -0.9045
vn -0.3015 -0.3015 -0.9045
vn -0.5773 -0.5773 -0.5773
vn 0.5773 -0.5773 -0.5773
vn -0.3015 0.3015 -0.9045
vn 0.5773 0.5773 -0.5773
vn -0.5773 0.5773 -0.5773
usemtl Material
s 1
f 3/1/1 5/2/1 9/3/2 7/4/3
f 9/5/2 8/6/4 12/7/5 13/8/6
f 2/9/1 3/1/1 7/4/3 6/10/7
f 5/2/1 4/11/1 8/12/4 9/3/2
f 4/11/1 2/9/1 6/10/7 8/12/4
f 11/13/8 13/14/6 12/15/5 10/16/9
f 8/17/4 6/18/7 10/19/9 12/20/5
f 7/21/3 9/22/2 13/23/6 11/24/8
f 6/25/7 7/26/3 11/27/8 10/28/9
l 1 3
